<svg width="140" height="175" viewBox="0 0 116 145" fill="none"
    xmlns="http://www.w3.org/2000/svg">
    <path d="M20.2111 123.606L57.1888 142.094C58.3275 142.664 59.6691 142.657 60.8021 142.076L96.8244 123.615C98.1599 122.931 99 121.556 99 120.055V90.0571C99 88.498 98.0942 87.0811 96.6791 86.4266L60.6586 69.7671C59.6052 69.2799 58.3922 69.2743 57.3343 69.7516L20.3548 86.4375C18.9214 87.0842 18 88.5109 18 90.0835V120.028C18 121.543 18.856 122.928 20.2111 123.606Z" stroke="#151A21" stroke-width="4" />
    <path d="M8.877 76.4029L56.7816 54.2931C57.8694 53.791 59.1249 53.803 60.203 54.3257L105.941 76.5015C107.216 77.1201 108.725 77.017 109.904 76.2304L112.219 74.6875C113.332 73.9456 114 72.6967 114 71.3593V31.2233C114 30.4724 113.579 29.7848 112.911 29.4428L93.9555 19.7447C93.2901 19.4042 92.5 19.8875 92.5 20.6349V39L78 31.5V12.7504C78 11.9854 77.5636 11.2874 76.8759 10.9524L60.2055 2.83091C59.1261 2.30504 57.8676 2.29187 56.7774 2.79503L40.1619 10.4637C39.4536 10.7907 39 11.4996 39 12.2797V31.5L23.5 39V20.6349C23.5 19.8875 22.7099 19.4042 22.0445 19.7447L3.08905 29.4428C2.42058 29.7848 2 30.4724 2 31.2233V71.7037C2 72.8463 2.48859 73.9343 3.34254 74.6934L4.54331 75.7607C5.73181 76.8172 7.43321 77.0693 8.877 76.4029Z" stroke="#151A21" stroke-width="4" />
    <g mask="url(#loading_logotype_mask)" filter="url(#loading_logotype_filter)">
        <rect id="rect" x="-25" y="0" width="160" height="40" fill="#41E6A4" style="animation: moveUpDown 1.5s ease-in-out infinite;" />
    </g>
    <mask id="loading_logotype_mask" style="mask-type: alpha" maskUnits="userSpaceOnUse" x="0" y="0" width="116" height="145">
        <path d="M20.2111 123.606L57.1888 142.094C58.3275 142.664 59.6691 142.657 60.8021 142.076L96.8244 123.615C98.1599 122.931 99 121.556 99 120.055V90.0571C99 88.498 98.0942 87.0811 96.6791 86.4266L60.6586 69.7671C59.6052 69.2799 58.3922 69.2743 57.3343 69.7516L20.3548 86.4375C18.9214 87.0842 18 88.5109 18 90.0835V120.028C18 121.543 18.856 122.928 20.2111 123.606Z" stroke="#151A21" stroke-width="4" />
        <path d="M8.877 76.4029L56.7816 54.2931C57.8694 53.791 59.1249 53.803 60.203 54.3257L105.941 76.5015C107.216 77.1201 108.725 77.017 109.904 76.2304L112.219 74.6875C113.332 73.9456 114 72.6967 114 71.3593V31.2233C114 30.4724 113.579 29.7848 112.911 29.4428L93.9555 19.7447C93.2901 19.4042 92.5 19.8875 92.5 20.6349V39L78 31.5V12.7504C78 11.9854 77.5636 11.2874 76.8759 10.9524L60.2055 2.83091C59.1261 2.30504 57.8676 2.29187 56.7774 2.79503L40.1619 10.4637C39.4536 10.7907 39 11.4996 39 12.2797V31.5L23.5 39V20.6349C23.5 19.8875 22.7099 19.4042 22.0445 19.7447L3.08905 29.4428C2.42058 29.7848 2 30.4724 2 31.2233V71.7037C2 72.8463 2.48859 73.9343 3.34254 74.6934L4.54331 75.7607C5.73181 76.8172 7.43321 77.0693 8.877 76.4029Z" stroke="#151A21" stroke-width="4" />
    </mask>
    <defs>
        <filter id="loading_logotype_filter" x="-55" y="-50" width="220" height="200" filterUnits="userSpaceOnUse" color-interpolation-filters="sRGB">
            <feFlood flood-opacity="0" result="BackgroundImageFix" />
            <feBlend mode="normal" in="SourceGraphic" in2="BackgroundImageFix" result="shape" />
            <feGaussianBlur stdDeviation="15" result="effect1_foregroundBlur_1_30" />
        </filter>
        <style>
            @keyframes moveUpDown {
                0% {
                    transform: translateY(150px);
                }
                70% {
                    transform: translateY(-70px);
                }
                100% {
                    transform: translateY(-70px);
                }
            }
        </style>
    </defs>
</svg>
